<svg width="435" height="144" viewBox="0 0 435 144" fill="none" xmlns="http://www.w3.org/2000/svg">
<path d="M290 71.8521C285.663 74.8163 282.928 78.2362 279.908 82.0288C278.758 83.4665 277.567 84.9694 276.173 86.5787C274.6 88.4129 272.646 89.8565 270.37 90.8742L267.129 92.3238L268.386 95.6253C269.268 97.9387 269.619 100.341 269.435 102.743C269.268 104.855 269.047 106.749 268.833 108.577C268.279 113.375 267.773 117.706 268.714 122.86C266.766 122.499 264.812 122.333 262.756 122.333C259.95 122.333 257.222 122.647 254.332 122.984C252.497 123.185 250.585 123.404 248.458 123.57C248.035 123.605 247.6 123.629 247.177 123.629C245.194 123.629 243.216 123.256 241.291 122.534L237.967 121.286L236.507 124.505C235.483 126.759 234.029 128.694 232.182 130.267C230.562 131.634 229.067 132.823 227.613 133.977C223.794 136.977 220.351 139.687 217.354 144C214.369 139.693 210.926 136.977 207.107 133.977C205.659 132.823 204.146 131.652 202.526 130.267C200.667 128.682 199.19 126.717 198.153 124.41L196.717 121.233L193.417 122.422C191.558 123.096 189.646 123.428 187.739 123.428C187.316 123.428 186.881 123.416 186.446 123.38C184.332 123.215 182.425 122.996 180.584 122.783C177.695 122.457 174.966 122.15 172.16 122.15C170.105 122.15 168.151 122.315 166.191 122.664C167.132 117.529 166.638 113.186 166.084 108.393C165.863 106.559 165.649 104.66 165.482 102.56C165.291 100.193 165.625 97.8322 166.483 95.5543L167.704 92.2883L164.517 90.8387C162.295 89.8329 160.37 88.3892 158.827 86.5905C157.451 84.9812 156.254 83.4961 155.092 82.0406C152.072 78.2598 149.343 74.8282 145 71.8639C149.337 68.8878 152.066 65.468 155.092 61.6754C156.254 60.2377 157.451 58.7467 158.827 57.1373C160.376 55.3268 162.295 53.895 164.517 52.8891L167.704 51.4396L166.483 48.1736C165.625 45.8838 165.285 43.529 165.482 41.1682C165.649 39.0678 165.869 37.1745 166.084 35.3344C166.638 30.536 167.132 26.2049 166.191 21.0515C168.151 21.4124 170.105 21.5781 172.16 21.5781C174.954 21.5781 177.683 21.2645 180.572 20.9273C182.419 20.7261 184.332 20.4954 186.446 20.3415C186.881 20.306 187.316 20.2942 187.739 20.2942C189.687 20.2942 191.618 20.6433 193.5 21.3355L196.789 22.5366L198.248 19.383C199.261 17.1643 200.715 15.265 202.526 13.7208C204.146 12.354 205.642 11.1766 207.095 10.0228C210.914 7.02309 214.357 4.31325 217.354 0C220.351 4.30734 223.794 7.02309 227.613 10.0347C229.072 11.1766 230.574 12.3481 232.182 13.7208C233.97 15.2473 235.411 17.1169 236.424 19.2884L237.907 22.4656L241.208 21.2054C243.156 20.4717 245.158 20.0871 247.177 20.0871C247.6 20.0871 248.035 20.1108 248.458 20.1344C250.585 20.3001 252.491 20.519 254.332 20.732C257.222 21.0693 259.95 21.3829 262.756 21.3829C264.812 21.3829 266.766 21.2172 268.714 20.8563C267.773 26.0038 268.279 30.3348 268.833 35.1391C269.053 36.9615 269.268 38.8607 269.435 40.9611C269.613 43.3751 269.268 45.7714 268.386 48.0907L267.129 51.3922L270.37 52.8418C272.64 53.8476 274.6 55.3031 276.173 57.1373C277.561 58.7467 278.758 60.2317 279.908 61.6872C282.928 65.468 285.657 68.8878 290 71.8639V71.8521Z" fill="#FFCA4F" fill-opacity="0.28"/>
<path d="M276.909 64.3415C278.92 66.8592 280.972 69.4282 283.599 71.8554C280.947 74.3031 278.878 76.9013 276.846 79.4529L276.784 79.5305C276.783 79.5312 276.783 79.532 276.782 79.5327C276.691 79.6467 276.6 79.7606 276.509 79.8744C275.439 81.213 274.376 82.5431 273.149 83.9597L273.143 83.9673L273.136 83.9749C271.963 85.343 270.495 86.4367 268.737 87.2227L268.737 87.2228L265.496 88.6724L262.046 90.2154L263.391 93.7471L264.648 97.0486L264.648 97.0498C265.324 98.8217 265.584 100.631 265.447 102.431C265.287 104.457 265.075 106.281 264.86 108.111L264.859 108.118L264.833 108.349C264.464 111.54 264.087 114.797 264.216 118.359C263.732 118.342 263.246 118.333 262.756 118.333C259.686 118.333 256.735 118.676 253.882 119.009C253.689 119.031 253.496 119.052 253.302 119.073C251.643 119.256 249.979 119.439 248.148 119.582L248.136 119.583L248.124 119.584C247.776 119.613 247.457 119.629 247.177 119.629C245.701 119.629 244.198 119.352 242.698 118.79C242.697 118.789 242.697 118.789 242.696 118.789L239.373 117.541L235.87 116.226L234.324 119.634L232.866 122.849C232.081 124.575 230.984 126.031 229.595 127.216C228.031 128.535 226.583 129.688 225.134 130.838C225.131 130.84 225.129 130.842 225.126 130.844L225.025 130.923C222.452 132.945 219.83 135.004 217.357 137.652C214.879 134.996 212.248 132.929 209.664 130.899L209.6 130.849C209.596 130.846 209.592 130.843 209.589 130.84C209.269 130.585 208.953 130.335 208.639 130.086C207.48 129.168 206.341 128.266 205.124 127.226L205.122 127.224C203.718 126.027 202.598 124.544 201.802 122.771L201.798 122.763L200.362 119.585L198.84 116.216L195.361 117.469L192.061 118.659L192.052 118.662C190.629 119.178 189.179 119.428 187.739 119.428C187.387 119.428 187.067 119.418 186.772 119.394L186.759 119.393C184.727 119.233 182.888 119.023 181.044 118.809L181.032 118.808L180.921 118.795C178.104 118.478 175.189 118.15 172.16 118.15C171.667 118.15 171.178 118.158 170.692 118.176C170.825 114.576 170.444 111.279 170.07 108.049L170.057 107.934L170.056 107.925L170.055 107.916C169.837 106.101 169.63 104.264 169.469 102.243L169.469 102.238C169.326 100.469 169.573 98.6984 170.226 96.9641L170.229 96.9553L171.451 93.6893L172.758 90.1927L169.36 88.6472L166.173 87.1976L166.166 87.1946C164.47 86.427 163.022 85.3362 161.865 83.9883C160.535 82.4324 159.372 80.9903 158.218 79.5453L158.217 79.5439L158.051 79.3363C156.054 76.8356 154.009 74.2748 151.393 71.8594C154.026 69.4248 156.084 66.8456 158.105 64.3126L158.203 64.1893C158.206 64.1862 158.208 64.183 158.211 64.1799C158.301 64.0687 158.391 63.9576 158.48 63.8464C159.559 62.5109 160.64 61.1729 161.867 59.7377C163.025 58.3841 164.465 57.3035 166.166 56.5332L166.173 56.5303L169.36 55.0807L172.758 53.5352L171.451 50.0385L170.229 46.7725L170.229 46.7702C169.569 45.0105 169.323 43.2473 169.468 41.5002L169.469 41.4925L169.469 41.4849C169.63 39.4677 169.842 37.6432 170.057 35.7975L170.057 35.7932L170.072 35.6638C170.445 32.4345 170.825 29.1478 170.692 25.5518C171.178 25.5695 171.667 25.5781 172.16 25.5781C175.218 25.5781 178.169 25.235 181.021 24.9021C181.371 24.864 181.717 24.8255 182.063 24.7871C183.59 24.6175 185.092 24.4506 186.737 24.331L186.754 24.3297L186.772 24.3283C187.067 24.3042 187.387 24.2942 187.739 24.2942C189.202 24.2942 190.666 24.5551 192.12 25.0898L192.128 25.0928L195.416 26.2939L198.873 27.5563L200.419 24.2167L201.878 21.0631L201.883 21.0536L201.887 21.044C202.651 19.3703 203.742 17.9425 205.113 16.7712C206.529 15.5776 207.844 14.5341 209.17 13.4824C209.305 13.3759 209.439 13.2694 209.574 13.1626C209.576 13.1604 209.579 13.1581 209.582 13.1559L209.683 13.0769C212.258 11.0541 214.881 8.99371 217.355 6.34367C219.819 8.98263 222.43 11.0418 224.994 13.0638L225.136 13.1755L225.142 13.1803L225.148 13.1851L225.238 13.2554C226.676 14.38 228.083 15.4814 229.586 16.7635C230.947 17.9265 232.034 19.3384 232.799 20.9791L232.8 20.9806L234.283 24.1578L235.858 27.5301L239.334 26.2025L242.618 24.9487C242.62 24.9477 242.623 24.9467 242.626 24.9457C244.153 24.3716 245.675 24.0871 247.177 24.0871C247.462 24.0871 247.776 24.1026 248.191 24.1257C250.216 24.2845 252.041 24.4936 253.871 24.7053C256.728 25.0388 259.682 25.3829 262.756 25.3829C263.246 25.3829 263.732 25.3743 264.216 25.3569C264.088 28.9137 264.464 32.169 264.832 35.3601L264.859 35.5974L264.861 35.6084L264.862 35.6195C265.079 37.4169 265.286 39.2502 265.446 41.2659C265.58 43.0897 265.321 44.8969 264.647 46.6693L263.391 49.9689L262.046 53.5006L265.496 55.0436L268.737 56.4932L268.749 56.4988C270.484 57.2677 271.958 58.367 273.136 59.7411L273.144 59.7499C274.479 61.2981 275.637 62.7335 276.769 64.1668L276.776 64.1754L276.783 64.1839L276.909 64.3415Z" stroke="#FFCA4F" stroke-opacity="0.19" stroke-width="8"/>
<g opacity="0.5">
<path d="M145 71.8521C140.663 74.8163 137.928 78.2362 134.908 82.0288C133.758 83.4665 132.567 84.9694 131.173 86.5787C129.6 88.4129 127.646 89.8565 125.37 90.8742L122.129 92.3238L123.386 95.6253C124.268 97.9387 124.619 100.341 124.435 102.743C124.268 104.855 124.047 106.749 123.833 108.577C123.279 113.375 122.773 117.706 123.714 122.86C121.766 122.499 119.812 122.333 117.756 122.333C114.95 122.333 112.222 122.647 109.332 122.984C107.497 123.185 105.585 123.404 103.458 123.57C103.035 123.605 102.6 123.629 102.177 123.629C100.194 123.629 98.2156 123.256 96.2914 122.534L92.9671 121.286L91.5075 124.505C90.4828 126.759 89.0291 128.694 87.1823 130.267C85.5619 131.634 84.0665 132.823 82.6129 133.977C78.7941 136.977 75.3507 139.687 72.354 144C69.3693 139.693 65.9259 136.977 62.1071 133.977C60.6594 132.823 59.1462 131.652 57.5258 130.267C55.667 128.682 54.1896 126.717 53.153 124.41L51.7172 121.233L48.4167 122.422C46.558 123.096 44.6456 123.428 42.7392 123.428C42.3162 123.428 41.8813 123.416 41.4464 123.38C39.3315 123.215 37.4251 122.996 35.5842 122.783C32.6949 122.457 29.9663 122.15 27.1603 122.15C25.105 122.15 23.1509 122.315 21.1909 122.664C22.1322 117.529 21.6377 113.186 21.0837 108.393C20.8632 106.559 20.6488 104.66 20.4819 102.56C20.2913 100.193 20.6249 97.8322 21.4828 95.5543L22.7041 92.2883L19.5168 90.8387C17.2947 89.8329 15.3704 88.3892 13.8274 86.5905C12.4512 84.9812 11.2537 83.4961 10.092 82.0406C7.07157 78.2598 4.34303 74.8282 0 71.8639C4.33707 68.8878 7.06562 65.468 10.092 61.6754C11.2537 60.2377 12.4512 58.7467 13.8274 57.1373C15.3764 55.3268 17.2947 53.895 19.5168 52.8891L22.7041 51.4396L21.4828 48.1736C20.6249 45.8838 20.2853 43.529 20.4819 41.1682C20.6488 39.0678 20.8692 37.1745 21.0837 35.3344C21.6377 30.536 22.1322 26.2049 21.1909 21.0515C23.1509 21.4124 25.105 21.5781 27.1603 21.5781C29.9544 21.5781 32.6829 21.2645 35.5723 20.9273C37.4192 20.7261 39.3315 20.4954 41.4464 20.3415C41.8813 20.306 42.3162 20.2942 42.7392 20.2942C44.6873 20.2942 46.6176 20.6433 48.5001 21.3355L51.7887 22.5366L53.2483 19.383C54.2611 17.1643 55.7147 15.265 57.5258 13.7208C59.1462 12.354 60.6416 11.1766 62.0952 10.0228C65.914 7.02309 69.3574 4.31325 72.354 0C75.3507 4.30734 78.7941 7.02309 82.6129 10.0347C84.0725 11.1766 85.5738 12.3481 87.1823 13.7208C88.9696 15.2473 90.4113 17.1169 91.424 19.2884L92.9075 22.4656L96.2079 21.2054C98.1561 20.4717 100.158 20.0871 102.177 20.0871C102.6 20.0871 103.035 20.1108 103.458 20.1344C105.585 20.3001 107.491 20.519 109.332 20.732C112.222 21.0693 114.95 21.3829 117.756 21.3829C119.812 21.3829 121.766 21.2172 123.714 20.8563C122.773 26.0038 123.279 30.3348 123.833 35.1391C124.053 36.9615 124.268 38.8607 124.435 40.9611C124.613 43.3751 124.268 45.7714 123.386 48.0907L122.129 51.3922L125.37 52.8418C127.64 53.8476 129.6 55.3031 131.173 57.1373C132.561 58.7467 133.758 60.2317 134.908 61.6872C137.928 65.468 140.657 68.8878 145 71.8639V71.8521Z" fill="#FFCA4F" fill-opacity="0.28"/>
<path d="M131.909 64.3415C133.92 66.8592 135.972 69.4282 138.599 71.8554C135.947 74.3031 133.878 76.9013 131.846 79.4529L131.784 79.5305C131.783 79.5312 131.783 79.532 131.782 79.5327C131.691 79.6467 131.6 79.7606 131.509 79.8744C130.439 81.213 129.376 82.5431 128.149 83.9597L128.143 83.9673L128.136 83.9749C126.963 85.343 125.495 86.4367 123.737 87.2227L123.737 87.2228L120.496 88.6724L117.046 90.2154L118.391 93.7471L119.648 97.0486L119.648 97.0498C120.324 98.8217 120.584 100.631 120.447 102.431C120.287 104.457 120.075 106.281 119.86 108.111L119.859 108.118L119.833 108.349C119.464 111.54 119.087 114.797 119.216 118.359C118.732 118.342 118.246 118.333 117.756 118.333C114.686 118.333 111.735 118.676 108.882 119.009C108.689 119.031 108.496 119.052 108.302 119.073C106.643 119.256 104.979 119.439 103.148 119.582L103.136 119.583L103.124 119.584C102.776 119.613 102.457 119.629 102.177 119.629C100.701 119.629 99.1981 119.352 97.6976 118.79C97.6972 118.789 97.6967 118.789 97.6962 118.789L94.3733 117.541L90.8698 116.226L89.3241 119.634L87.866 122.849C87.0814 124.575 85.9842 126.031 84.5954 127.216C83.0314 128.535 81.5832 129.688 80.1337 130.838C80.1312 130.84 80.1287 130.842 80.1262 130.844L80.0254 130.923C77.4516 132.945 74.8298 135.004 72.3568 137.652C69.8791 134.996 67.2476 132.929 64.6645 130.899L64.6001 130.849C64.5963 130.846 64.5925 130.843 64.5887 130.84C64.2692 130.585 63.9532 130.335 63.6385 130.086C62.4803 129.168 61.3414 128.266 60.1241 127.226L60.1218 127.224C58.7185 126.027 57.5983 124.544 56.8017 122.771L56.7981 122.763L55.3623 119.585L53.8397 116.216L50.3612 117.469L47.0608 118.659L47.0523 118.662C45.6292 119.178 44.1785 119.428 42.7392 119.428C42.3874 119.428 42.0667 119.418 41.7719 119.394L41.7588 119.393C39.7266 119.233 37.8877 119.023 36.044 118.809L36.0319 118.808L35.9213 118.795C33.1038 118.478 30.1887 118.15 27.1603 118.15C26.667 118.15 26.1778 118.158 25.6917 118.176C25.8251 114.576 25.444 111.279 25.0705 108.049L25.0572 107.934L25.0562 107.925L25.0551 107.916C24.8369 106.101 24.6299 104.264 24.4694 102.243L24.469 102.238C24.3265 100.469 24.573 98.6984 25.2262 96.9641L25.2294 96.9553L26.4507 93.6893L27.7583 90.1927L24.3601 88.6472L21.1728 87.1976L21.1663 87.1946C19.4704 86.427 18.0221 85.3362 16.8652 83.9883C15.5348 82.4324 14.3716 80.9903 13.2183 79.5453L13.2172 79.5439L13.0513 79.3363C11.0541 76.8356 9.00875 74.2748 6.39267 71.8594C9.02615 69.4248 11.084 66.8456 13.1051 64.3126L13.2033 64.1893C13.2059 64.1862 13.2084 64.183 13.211 64.1799C13.3008 64.0687 13.3906 63.9576 13.4803 63.8464C14.559 62.5109 15.6396 61.1729 16.8668 59.7377C18.0249 58.3841 19.4646 57.3035 21.1663 56.5332L21.1728 56.5303L24.3601 55.0807L27.7582 53.5352L26.4507 50.0385L25.2294 46.7725L25.2285 46.7702C24.5693 45.0105 24.3226 43.2473 24.4681 41.5002L24.4688 41.4925L24.4694 41.4849C24.6296 39.4677 24.8416 37.6432 25.0568 35.7975L25.0573 35.7932L25.0722 35.6638C25.4452 32.4345 25.8248 29.1478 25.6918 25.5518C26.1782 25.5695 26.6674 25.5781 27.1603 25.5781C30.2182 25.5781 33.1686 25.235 36.0209 24.9021C36.3707 24.864 36.7173 24.8255 37.0626 24.7871C38.5895 24.6175 40.0922 24.4506 41.7366 24.331L41.7543 24.3297L41.7719 24.3283C42.0667 24.3042 42.3874 24.2942 42.7392 24.2942C44.202 24.2942 45.6655 24.5551 47.1197 25.0898L47.1279 25.0928L50.4164 26.2939L53.8731 27.5563L55.4187 24.2167L56.8783 21.0631L56.8828 21.0536L56.8871 21.044C57.6511 19.3703 58.7418 17.9425 60.1132 16.7712C61.5287 15.5776 62.8444 14.5341 64.1704 13.4824C64.3046 13.3759 64.439 13.2694 64.5735 13.1626C64.5763 13.1604 64.5791 13.1581 64.5819 13.1559L64.6827 13.0769C67.2579 11.0541 69.881 8.99371 72.3551 6.34367C74.8187 8.98263 77.43 11.0418 79.9943 13.0638L80.1359 13.1755L80.142 13.1803L80.1481 13.1851L80.238 13.2554C81.6755 14.38 83.0834 15.4814 84.5858 16.7635C85.9471 17.9265 87.0337 19.3384 87.799 20.9791L87.7996 20.9806L89.2831 24.1578L90.8575 27.5301L94.3344 26.2025L97.6177 24.9487C97.6204 24.9477 97.6231 24.9467 97.6257 24.9457C99.1528 24.3716 100.675 24.0871 102.177 24.0871C102.462 24.0871 102.776 24.1026 103.191 24.1257C105.216 24.2845 107.041 24.4936 108.871 24.7053C111.728 25.0388 114.682 25.3829 117.756 25.3829C118.246 25.3829 118.732 25.3743 119.216 25.3569C119.088 28.9137 119.464 32.169 119.832 35.3601L119.859 35.5974L119.861 35.6084L119.862 35.6195C120.079 37.4169 120.286 39.2502 120.446 41.2659C120.58 43.0897 120.321 44.8969 119.647 46.6693L118.391 49.9689L117.046 53.5006L120.496 55.0436L123.737 56.4932L123.749 56.4988C125.484 57.2677 126.958 58.367 128.136 59.7411L128.144 59.7499C129.479 61.2981 130.637 62.7335 131.769 64.1668L131.776 64.1754L131.783 64.1839L131.909 64.3415Z" stroke="#FFCA4F" stroke-opacity="0.19" stroke-width="8"/>
</g>
<g opacity="0.5">
<path d="M435 71.8521C430.663 74.8163 427.928 78.2362 424.908 82.0288C423.758 83.4665 422.567 84.9694 421.173 86.5787C419.6 88.4129 417.646 89.8565 415.37 90.8742L412.129 92.3238L413.386 95.6253C414.268 97.9387 414.619 100.341 414.435 102.743C414.268 104.855 414.047 106.749 413.833 108.577C413.279 113.375 412.773 117.706 413.714 122.86C411.766 122.499 409.812 122.333 407.756 122.333C404.95 122.333 402.222 122.647 399.332 122.984C397.497 123.185 395.585 123.404 393.458 123.57C393.035 123.605 392.6 123.629 392.177 123.629C390.194 123.629 388.216 123.256 386.291 122.534L382.967 121.286L381.507 124.505C380.483 126.759 379.029 128.694 377.182 130.267C375.562 131.634 374.067 132.823 372.613 133.977C368.794 136.977 365.351 139.687 362.354 144C359.369 139.693 355.926 136.977 352.107 133.977C350.659 132.823 349.146 131.652 347.526 130.267C345.667 128.682 344.19 126.717 343.153 124.41L341.717 121.233L338.417 122.422C336.558 123.096 334.646 123.428 332.739 123.428C332.316 123.428 331.881 123.416 331.446 123.38C329.332 123.215 327.425 122.996 325.584 122.783C322.695 122.457 319.966 122.15 317.16 122.15C315.105 122.15 313.151 122.315 311.191 122.664C312.132 117.529 311.638 113.186 311.084 108.393C310.863 106.559 310.649 104.66 310.482 102.56C310.291 100.193 310.625 97.8322 311.483 95.5543L312.704 92.2883L309.517 90.8387C307.295 89.8329 305.37 88.3892 303.827 86.5905C302.451 84.9812 301.254 83.4961 300.092 82.0406C297.072 78.2598 294.343 74.8282 290 71.8639C294.337 68.8878 297.066 65.468 300.092 61.6754C301.254 60.2377 302.451 58.7467 303.827 57.1373C305.376 55.3268 307.295 53.895 309.517 52.8891L312.704 51.4396L311.483 48.1736C310.625 45.8838 310.285 43.529 310.482 41.1682C310.649 39.0678 310.869 37.1745 311.084 35.3344C311.638 30.536 312.132 26.2049 311.191 21.0515C313.151 21.4124 315.105 21.5781 317.16 21.5781C319.954 21.5781 322.683 21.2645 325.572 20.9273C327.419 20.7261 329.332 20.4954 331.446 20.3415C331.881 20.306 332.316 20.2942 332.739 20.2942C334.687 20.2942 336.618 20.6433 338.5 21.3355L341.789 22.5366L343.248 19.383C344.261 17.1643 345.715 15.265 347.526 13.7208C349.146 12.354 350.642 11.1766 352.095 10.0228C355.914 7.02309 359.357 4.31325 362.354 0C365.351 4.30734 368.794 7.02309 372.613 10.0347C374.072 11.1766 375.574 12.3481 377.182 13.7208C378.97 15.2473 380.411 17.1169 381.424 19.2884L382.907 22.4656L386.208 21.2054C388.156 20.4717 390.158 20.0871 392.177 20.0871C392.6 20.0871 393.035 20.1108 393.458 20.1344C395.585 20.3001 397.491 20.519 399.332 20.732C402.222 21.0693 404.95 21.3829 407.756 21.3829C409.812 21.3829 411.766 21.2172 413.714 20.8563C412.773 26.0038 413.279 30.3348 413.833 35.1391C414.053 36.9615 414.268 38.8607 414.435 40.9611C414.613 43.3751 414.268 45.7714 413.386 48.0907L412.129 51.3922L415.37 52.8418C417.64 53.8476 419.6 55.3031 421.173 57.1373C422.561 58.7467 423.758 60.2317 424.908 61.6872C427.928 65.468 430.657 68.8878 435 71.8639V71.8521Z" fill="#FFCA4F" fill-opacity="0.28"/>
<path d="M421.909 64.3415C423.92 66.8592 425.972 69.4282 428.599 71.8554C425.947 74.3031 423.878 76.9013 421.846 79.4529L421.784 79.5305C421.783 79.5312 421.783 79.532 421.782 79.5327C421.691 79.6467 421.6 79.7606 421.509 79.8744C420.439 81.213 419.376 82.5431 418.149 83.9597L418.143 83.9673L418.136 83.9749C416.963 85.343 415.495 86.4367 413.737 87.2227L413.737 87.2228L410.496 88.6724L407.046 90.2154L408.391 93.7471L409.648 97.0486L409.648 97.0498C410.324 98.8217 410.584 100.631 410.447 102.431C410.287 104.457 410.075 106.281 409.86 108.111L409.859 108.118L409.833 108.349C409.464 111.54 409.087 114.797 409.216 118.359C408.732 118.342 408.246 118.333 407.756 118.333C404.686 118.333 401.735 118.676 398.882 119.009C398.689 119.031 398.496 119.052 398.302 119.073C396.643 119.256 394.979 119.439 393.148 119.582L393.136 119.583L393.124 119.584C392.776 119.613 392.457 119.629 392.177 119.629C390.701 119.629 389.198 119.352 387.698 118.79C387.697 118.789 387.697 118.789 387.696 118.789L384.373 117.541L380.87 116.226L379.324 119.634L377.866 122.849C377.081 124.575 375.984 126.031 374.595 127.216C373.031 128.535 371.583 129.688 370.134 130.838C370.131 130.84 370.129 130.842 370.126 130.844L370.025 130.923C367.452 132.945 364.83 135.004 362.357 137.652C359.879 134.996 357.248 132.929 354.664 130.899L354.6 130.849C354.596 130.846 354.592 130.843 354.589 130.84C354.269 130.585 353.953 130.335 353.639 130.086C352.48 129.168 351.341 128.266 350.124 127.226L350.122 127.224C348.718 126.027 347.598 124.544 346.802 122.771L346.798 122.763L345.362 119.585L343.84 116.216L340.361 117.469L337.061 118.659L337.052 118.662C335.629 119.178 334.179 119.428 332.739 119.428C332.387 119.428 332.067 119.418 331.772 119.394L331.759 119.393C329.727 119.233 327.888 119.023 326.044 118.809L326.032 118.808L325.921 118.795C323.104 118.478 320.189 118.15 317.16 118.15C316.667 118.15 316.178 118.158 315.692 118.176C315.825 114.576 315.444 111.279 315.07 108.049L315.057 107.934L315.056 107.925L315.055 107.916C314.837 106.101 314.63 104.264 314.469 102.243L314.469 102.238C314.326 100.469 314.573 98.6984 315.226 96.9641L315.229 96.9553L316.451 93.6893L317.758 90.1927L314.36 88.6472L311.173 87.1976L311.166 87.1946C309.47 86.427 308.022 85.3362 306.865 83.9883C305.535 82.4324 304.372 80.9903 303.218 79.5453L303.217 79.5439L303.051 79.3363C301.054 76.8356 299.009 74.2748 296.393 71.8594C299.026 69.4248 301.084 66.8456 303.105 64.3126L303.203 64.1893C303.206 64.1862 303.208 64.183 303.211 64.1799C303.301 64.0687 303.391 63.9576 303.48 63.8464C304.559 62.5109 305.64 61.1729 306.867 59.7377C308.025 58.3841 309.465 57.3035 311.166 56.5332L311.173 56.5303L314.36 55.0807L317.758 53.5352L316.451 50.0385L315.229 46.7725L315.229 46.7702C314.569 45.0105 314.323 43.2473 314.468 41.5002L314.469 41.4925L314.469 41.4849C314.63 39.4677 314.842 37.6432 315.057 35.7975L315.057 35.7932L315.072 35.6638C315.445 32.4345 315.825 29.1478 315.692 25.5518C316.178 25.5695 316.667 25.5781 317.16 25.5781C320.218 25.5781 323.169 25.235 326.021 24.9021C326.371 24.864 326.717 24.8255 327.063 24.7871C328.59 24.6175 330.092 24.4506 331.737 24.331L331.754 24.3297L331.772 24.3283C332.067 24.3042 332.387 24.2942 332.739 24.2942C334.202 24.2942 335.666 24.5551 337.12 25.0898L337.128 25.0928L340.416 26.2939L343.873 27.5563L345.419 24.2167L346.878 21.0631L346.883 21.0536L346.887 21.044C347.651 19.3703 348.742 17.9425 350.113 16.7712C351.529 15.5776 352.844 14.5341 354.17 13.4824C354.305 13.3759 354.439 13.2694 354.574 13.1626C354.576 13.1604 354.579 13.1581 354.582 13.1559L354.683 13.0769C357.258 11.0541 359.881 8.99371 362.355 6.34367C364.819 8.98263 367.43 11.0418 369.994 13.0638L370.136 13.1755L370.142 13.1803L370.148 13.1851L370.238 13.2554C371.676 14.38 373.083 15.4814 374.586 16.7635C375.947 17.9265 377.034 19.3384 377.799 20.9791L377.8 20.9806L379.283 24.1578L380.858 27.5301L384.334 26.2025L387.618 24.9487C387.62 24.9477 387.623 24.9467 387.626 24.9457C389.153 24.3716 390.675 24.0871 392.177 24.0871C392.462 24.0871 392.776 24.1026 393.191 24.1257C395.216 24.2845 397.041 24.4936 398.871 24.7053C401.728 25.0388 404.682 25.3829 407.756 25.3829C408.246 25.3829 408.732 25.3743 409.216 25.3569C409.088 28.9137 409.464 32.169 409.832 35.3601L409.859 35.5974L409.861 35.6084L409.862 35.6195C410.079 37.4169 410.286 39.2502 410.446 41.2659C410.58 43.0897 410.321 44.8969 409.647 46.6693L408.391 49.9689L407.046 53.5006L410.496 55.0436L413.737 56.4932L413.749 56.4988C415.484 57.2677 416.958 58.367 418.136 59.7411L418.144 59.7499C419.479 61.2981 420.637 62.7335 421.769 64.1668L421.776 64.1754L421.783 64.1839L421.909 64.3415Z" stroke="#FFCA4F" stroke-opacity="0.19" stroke-width="8"/>
</g>
</svg>
