<svg width="264" height="48" viewBox="0 0 264 48" fill="none" xmlns="http://www.w3.org/2000/svg">
<path fill-rule="evenodd" clip-rule="evenodd" d="M124.004 17.9952C124.004 27.8952 123.874 33.5092 123.62 34.5172C123.11 36.5411 120.981 38.9307 119.021 39.6794C116.76 40.5425 113.491 40.2609 111.653 39.0446C109.838 37.8438 108.548 35.7886 108.31 33.7212C107.914 30.2662 108.274 30.5413 104.155 30.5413H100.5L100.668 33.7257C100.87 37.5877 101.843 39.9197 104.429 42.7503C111.201 50.1592 123.821 49.2018 129.165 40.874C131.531 37.1863 131.578 36.7642 131.578 18.9777V3H127.791H124.004V17.9952ZM240.954 12.3055C235.141 13.2175 229.1 18.5701 227.44 24.2794C226.115 28.8375 226.586 34.4797 228.61 38.2769C229.942 40.7766 233.473 44.3728 235.829 45.6287C241.802 48.8118 249.579 48.3577 254.57 44.5343C255.471 43.844 256.264 43.2791 256.332 43.2791C256.4 43.2791 256.54 43.905 256.642 44.6696C256.938 46.8749 257.305 47.1077 260.301 46.9934L262.915 46.8939L263.005 30.0472C263.075 16.7982 263.002 13.1417 262.661 12.9252C262.113 12.5775 258.232 12.5634 257.691 12.9076C257.468 13.0491 257.101 13.8988 256.875 14.7956C256.469 16.4085 256.116 16.7772 255.668 16.0535C255.206 15.3054 251.819 13.382 250.026 12.8494C247.68 12.1526 243.518 11.9031 240.954 12.3055ZM185.493 13.0157C183.69 13.7473 180.808 15.6693 180.808 16.1406C180.808 16.2976 180.605 16.4264 180.357 16.4264C180.105 16.4264 179.714 15.6814 179.473 14.7391C179.154 13.4973 178.842 12.9989 178.289 12.8505C177.197 12.5575 174.511 12.6047 174.005 12.9252C173.664 13.1417 173.591 16.7982 173.661 30.0472L173.751 46.8939L177.016 46.9941C179.788 47.0787 180.346 47.004 180.716 46.4976C181.044 46.0497 181.152 43.4547 181.152 36.0461C181.152 25.0784 181.338 23.795 183.27 21.4599C185.75 18.461 190.218 17.9415 192.646 20.3696C194.575 22.2982 194.692 23.0876 194.903 35.5331L195.095 46.8939H198.538H201.98L202.159 36.0495C202.35 24.4942 202.426 23.9623 204.222 21.6792C205.707 19.7909 207.304 19.0218 209.752 19.0149C211.706 19.0094 212.188 19.1402 213.281 19.973C215.748 21.8527 215.739 21.801 215.855 34.6583C215.924 42.384 216.083 46.3272 216.337 46.6333C216.614 46.9679 217.598 47.0636 220.02 46.9916L223.325 46.8939V34.156V21.4182L222.246 19.134C220.936 16.363 219.075 14.4303 216.507 13.1737C214.715 12.2972 214.334 12.2401 211.035 12.3565C208.008 12.4632 207.2 12.6222 205.52 13.4405C204.438 13.9683 202.863 15.07 202.021 15.8886L200.489 17.3772L198.465 15.4091C195.925 12.9386 194.173 12.2883 190.128 12.3141C188.015 12.3275 186.699 12.5269 185.493 13.0157ZM137.344 13.0112C136.793 13.3324 136.743 14.1807 136.753 23.0707C136.766 34.0875 136.994 36.5838 138.236 39.2966C139.32 41.6638 142.238 44.8083 144.34 45.8731C149.204 48.3381 155.608 48.3381 160.473 45.8731C161.338 45.4345 162.843 44.2337 163.816 43.2051C167.616 39.1865 168.07 37.082 168.07 23.4735C168.07 13.8192 168.039 13.3359 167.404 12.9958C166.689 12.6129 161.941 12.5031 161.041 12.8484C160.561 13.0322 160.496 14.2613 160.496 23.1137C160.496 31.3579 160.396 33.5071 159.942 35.0377C157.941 41.7743 148.609 42.5465 145.242 36.2543C144.52 34.9038 144.483 34.3881 144.375 24.004C144.294 16.1954 144.15 13.0918 143.859 12.9069C143.256 12.5231 138.039 12.6067 137.344 13.0112ZM248.856 19.9193C253.105 21.5091 255.514 25.1032 255.514 29.8527C255.514 35.8268 251.676 40.0141 245.805 40.4454C239.305 40.9233 234.327 36.306 234.383 29.8527C234.393 28.8113 234.58 27.3248 234.8 26.5495C236.412 20.8636 243.033 17.7408 248.856 19.9193Z" fill="white"/>
<path d="M54.9216 6.13779L57.316 3.72483C58.6328 2.39769 59.7961 1.31187 59.9011 1.31187C60.0061 1.31187 61.1694 2.39769 62.4862 3.72483L64.8806 6.13779L62.3908 8.62787L59.9011 11.1176L57.4114 8.62787L54.9216 6.13779Z" fill="#FFC107"/>
<path d="M78.3201 0.784337C74.4716 2.35694 72.6831 5.39818 72.4714 10.7302L72.3739 13.1886L66.2708 13.5328V19.3854L72.3296 19.7296L72.3134 32.9839C72.3048 40.2737 72.4259 46.4378 72.5829 46.6815C72.7923 47.0061 73.7851 47.0984 76.2831 47.0258L79.6972 46.9266L80.0415 19.7296L89.3367 19.3854V13.5328L79.8693 13.3414V11.1295C79.8693 7.07097 80.9878 6.13113 85.8179 6.13113C87.9066 6.13113 88.8502 5.99342 89.138 5.64642C89.3873 5.34619 89.5016 4.20153 89.4386 2.63409L89.3367 0.106479L84.8612 0.0235228C80.7937 -0.0518694 80.1974 0.0173032 78.3201 0.784337Z" fill="white"/>
<path d="M42.8518 1.38508C42.7585 1.62849 42.7223 11.975 42.7716 24.3772L42.8607 46.9266L49.923 47.1229L49.746 1.13928L46.3836 1.04081C43.8866 0.96748 42.9774 1.05598 42.8518 1.38508Z" fill="white"/>
<path fill-rule="evenodd" clip-rule="evenodd" d="M1.91716 21.5756C3.87294 17.716 8.40383 14.0758 12.776 12.8515C14.0766 12.4873 15.7629 12.3682 18.4178 12.4536C22.7869 12.5937 24.91 13.2509 28.0104 15.4229C29.549 16.5004 29.9511 16.6595 29.9528 16.1902C29.9538 15.8649 30.1177 15.0115 30.3167 14.2937L30.6792 12.9893L36.3197 13.1886V46.9266L33.5724 47.0285C30.4658 47.1439 29.9508 46.8261 29.9508 44.7953C29.9508 43.4265 29.5335 43.3666 28.144 44.5357C26.3752 46.0243 23.9939 47.0317 20.8542 47.62C17.8784 48.1774 16.7451 48.1416 13.2539 47.3797C9.04244 46.4605 4.17728 42.7527 2.13299 38.9049C-0.629708 33.7054 -0.71611 26.772 1.91716 21.5756ZM18.1517 40.6234C24.0458 40.6234 28.824 35.8452 28.824 29.9511C28.824 24.057 24.0458 19.2789 18.1517 19.2789C12.2576 19.2789 7.47946 24.057 7.47946 29.9511C7.47946 35.8452 12.2576 40.6234 18.1517 40.6234Z" fill="white"/>
<path d="M56.2774 13.4347C56.1842 13.6781 56.148 21.3132 56.1976 30.4019L56.2871 46.9266H63.5167V13.1886L59.9818 13.0905C57.3468 13.0171 56.4038 13.1049 56.2774 13.4347Z" fill="white"/>
</svg>
